<svg width="512" height="512" viewBox="0 0 512 512" fill="none" xmlns="http://www.w3.org/2000/svg">
<path d="M512 256C512 397.385 397.385 512 256 512C114.615 512 0 397.385 0 256C0 114.615 114.615 0 256 0C397.385 0 512 114.615 512 256Z" fill="url(#paint0_linear_5_124)"/>
<path d="M416.252 332.598C412.053 331.927 402.747 333.707 399.118 346.205C396.296 357.09 384.84 360.483 379.465 360.819C358.501 361.625 354.604 375.601 355.276 382.488C355.276 399.824 342.173 405.165 335.622 405.669C311.937 408.693 310.929 422.299 309.921 430.362C308.913 438.425 317.48 448.504 328.567 449.512C339.654 450.52 341.669 443.465 348.22 442.457C350.741 442.069 356.283 442.457 360.819 443.465C369.722 445.984 388.535 448.101 392.567 436.409C397.606 421.795 403.654 422.803 404.158 422.803H411.213C430.866 420.283 436.913 404.157 436.913 398.11C436.913 393.272 435.57 390.383 434.898 389.543C427.238 381.077 425.995 375.601 426.331 373.921C426.331 372.309 427.339 370.226 427.843 369.386C433.084 362.129 433.722 353.26 433.386 349.732C432.58 335.622 421.627 332.43 416.252 332.598Z" fill="url(#paint1_linear_5_124)"/>
<path d="M50.3938 244.913C45.9591 190.891 69.0394 155.213 81.1339 144.126C75.7586 154.205 65.2094 185.449 66.0157 229.795C67.0236 285.228 141.102 375.937 225.26 369.386C309.417 362.835 326.047 315.969 329.071 281.701C332.094 247.433 302.866 220.724 277.165 223.244C251.465 225.764 244.913 236.346 242.394 253.984C239.874 271.622 264.567 275.15 261.039 272.63C257.512 270.11 255.496 267.591 255.496 264.063C255.496 260.535 259.024 254.488 270.11 252.976C281.197 251.465 286.74 262.551 287.748 271.118C288.756 279.685 278.677 296.315 254.488 296.819C230.299 297.323 213.669 275.15 213.165 252.976C212.762 235.238 225.428 219.381 231.811 213.669C242.562 202.751 274.041 185.046 313.953 201.575C353.865 218.104 365.522 259.528 366.362 278.173C368.714 297.323 363.742 343.685 325.039 375.937C286.337 408.189 238.362 411.549 219.213 409.197C209.47 408.693 183.433 404.964 157.228 394.079C131.024 383.194 104.315 358.971 94.2362 348.22C81.4698 336.294 54.8284 298.935 50.3938 244.913Z" fill="url(#paint2_linear_5_124)"/>
<path d="M250.457 320.504C294.4 320.907 306.394 288.756 306.898 272.63C306.898 295.307 301.018 318.488 279.181 331.591C238.866 355.78 200.567 342.173 175.37 318.488C150.173 294.803 138.079 257.008 161.764 204.598C185.449 152.189 246.425 130.016 294.803 133.543C343.181 137.071 390.428 161.26 425.827 209.638C456.063 250.961 451.696 326.551 439.433 355.78C445.48 315.465 425.491 271.118 414.74 253.984C399.118 224.252 351.143 165.694 284.22 169.323C200.567 173.858 187.465 244.409 186.961 257.008C186.457 269.606 195.528 320 250.457 320.504Z" fill="url(#paint3_linear_5_124)"/>
<path d="M149.19 51.2484C178.705 50.7763 203.015 74.3205 203.487 103.836C203.959 133.351 180.415 157.66 150.899 158.132C121.384 158.604 97.0747 135.06 96.6027 105.545C96.1307 76.0298 119.675 51.7204 149.19 51.2484Z" fill="#EBEBEB"/>
<path fill-rule="evenodd" clip-rule="evenodd" d="M125.106 57.4031C116.723 67.8465 111.767 81.3674 112.002 96.0655C112.521 128.532 138.174 154.448 169.299 153.95C169.849 153.942 170.397 153.925 170.943 153.9C164.777 156.521 158.011 158.019 150.899 158.132C121.384 158.604 97.0747 135.06 96.6027 105.545C96.2698 84.7307 107.881 66.5052 125.106 57.4031Z" fill="#9A9A9A"/>
<path d="M151.181 78.6142C151.181 85.8504 145.315 91.7165 138.079 91.7165C130.843 91.7165 124.976 85.8504 124.976 78.6142C124.976 71.3779 130.843 65.5118 138.079 65.5118C145.315 65.5118 151.181 71.3779 151.181 78.6142Z" fill="#D9D9D9"/>
<path d="M167.307 65.0079C167.307 66.9561 165.728 68.5354 163.78 68.5354C161.831 68.5354 160.252 66.9561 160.252 65.0079C160.252 63.0597 161.831 61.4803 163.78 61.4803C165.728 61.4803 167.307 63.0597 167.307 65.0079Z" fill="#D9D9D9"/>
<path d="M186.457 81.6378C186.457 83.3077 185.103 84.6614 183.433 84.6614C181.763 84.6614 180.409 83.3077 180.409 81.6378C180.409 79.9679 181.763 78.6142 183.433 78.6142C185.103 78.6142 186.457 79.9679 186.457 81.6378Z" fill="#D9D9D9"/>
<path d="M171.339 87.685C171.339 89.3549 169.985 90.7087 168.315 90.7087C166.645 90.7087 165.291 89.3549 165.291 87.685C165.291 86.0151 166.645 84.6614 168.315 84.6614C169.985 84.6614 171.339 86.0151 171.339 87.685Z" fill="#D9D9D9"/>
<path d="M133.039 109.858C133.039 114.311 129.429 117.921 124.976 117.921C120.523 117.921 116.913 114.311 116.913 109.858C116.913 105.405 120.523 101.795 124.976 101.795C129.429 101.795 133.039 105.405 133.039 109.858Z" fill="#D9D9D9"/>
<path d="M147.15 128.504C147.15 130.452 145.57 132.031 143.622 132.031C141.674 132.031 140.095 130.452 140.095 128.504C140.095 126.556 141.674 124.976 143.622 124.976C145.57 124.976 147.15 126.556 147.15 128.504Z" fill="#D9D9D9"/>
<path d="M166.299 138.079C166.299 139.749 164.946 141.102 163.276 141.102C161.606 141.102 160.252 139.749 160.252 138.079C160.252 136.409 161.606 135.055 163.276 135.055C164.946 135.055 166.299 136.409 166.299 138.079Z" fill="#D9D9D9"/>
<path d="M185.449 117.417C185.449 121.592 182.065 124.976 177.89 124.976C173.715 124.976 170.331 121.592 170.331 117.417C170.331 113.243 173.715 109.858 177.89 109.858C182.065 109.858 185.449 113.243 185.449 117.417Z" fill="#D9D9D9"/>
<path d="M320.539 100.581L318.488 102.803L279.181 66.5197L281.232 64.2979L320.539 100.581Z" fill="#547CE2"/>
<path d="M322.194 108.334L320.504 105.827L366.866 74.5827L368.556 77.0901L322.194 108.334Z" fill="#547CE2"/>
<path d="M430.757 143.309L428.346 145.134L374.929 74.5827L377.34 72.7575L430.757 143.309Z" fill="#547CE2"/>
<path d="M287.244 64.5039C281.197 62.8913 278.341 56.7769 277.669 53.9213C276.863 57.5496 271.958 63.1601 269.606 65.5118C272.126 65.5118 279.349 71.5591 277.669 74.5827C279.349 71.5591 284.052 66.5197 287.244 64.5039Z" fill="#F2F2F5"/>
<path d="M369.386 68.5354C368.882 69.0394 363.843 74.5827 361.827 76.5984C363.843 77.2703 368.176 79.0173 369.386 80.6299C370.898 82.6457 372.913 94.7402 373.921 93.2283C374.929 91.7165 376.945 81.6378 378.457 81.6378C379.969 81.6378 389.039 76.5984 388.535 75.5906C388.132 74.7842 381.648 70.5512 378.457 68.5354C377.953 62.6562 376.139 51.5024 372.913 53.9213C368.882 56.9449 369.89 68.0315 369.386 68.5354Z" fill="#F2F2F5"/>
<path d="M328.567 103.811C328.567 99.7795 323.528 97.2598 322.016 97.7638C316.976 97.7638 314.961 101.291 314.457 103.811C313.953 106.331 318.488 112.378 322.016 112.882C325.543 113.386 328.567 107.843 328.567 103.811Z" fill="#F2F2F5"/>
<path d="M415.748 144.63C428.346 143.118 429.354 128.504 429.858 127.496C432.277 138.381 440.273 143.454 443.969 144.63C438.929 147.15 437.467 147.604 434.898 150.173C432.882 152.189 430.698 158.74 428.85 160.252C427.238 150.173 419.444 145.638 415.748 144.63Z" fill="#F2F2F5"/>
<path d="M269.102 28.2205C269.102 30.447 267.523 32.252 265.575 32.252C263.627 32.252 262.047 30.447 262.047 28.2205C262.047 25.9939 263.627 24.189 265.575 24.189C267.523 24.189 269.102 25.9939 269.102 28.2205Z" fill="#D9D9D9"/>
<path d="M234.835 77.1024C234.835 78.4939 233.707 79.622 232.315 79.622C230.923 79.622 229.795 78.4939 229.795 77.1024C229.795 75.7108 230.923 74.5827 232.315 74.5827C233.707 74.5827 234.835 75.7108 234.835 77.1024Z" fill="#D9D9D9"/>
<path d="M478.74 173.858C478.74 175.806 477.161 177.386 475.213 177.386C473.264 177.386 471.685 175.806 471.685 173.858C471.685 171.91 473.264 170.331 475.213 170.331C477.161 170.331 478.74 171.91 478.74 173.858Z" fill="#D9D9D9"/>
<path d="M485.795 243.906C485.795 245.575 484.216 246.929 482.268 246.929C480.319 246.929 478.74 245.575 478.74 243.906C478.74 242.236 480.319 240.882 482.268 240.882C484.216 240.882 485.795 242.236 485.795 243.906Z" fill="#D9D9D9"/>
<path d="M459.591 331.591C459.591 333.26 458.462 334.614 457.071 334.614C455.679 334.614 454.551 333.26 454.551 331.591C454.551 329.921 455.679 328.567 457.071 328.567C458.462 328.567 459.591 329.921 459.591 331.591Z" fill="#D9D9D9"/>
<path d="M396.094 315.465C396.094 316.578 395.418 317.48 394.583 317.48C393.748 317.48 393.071 316.578 393.071 315.465C393.071 314.351 393.748 313.449 394.583 313.449C395.418 313.449 396.094 314.351 396.094 315.465Z" fill="#D9D9D9"/>
<path d="M398.11 270.614C398.11 272.006 396.982 273.134 395.591 273.134C394.199 273.134 393.071 272.006 393.071 270.614C393.071 269.223 394.199 268.094 395.591 268.094C396.982 268.094 398.11 269.223 398.11 270.614Z" fill="#D9D9D9"/>
<path d="M453.543 274.646C453.543 275.481 452.866 276.157 452.031 276.157C451.197 276.157 450.52 275.481 450.52 274.646C450.52 273.811 451.197 273.134 452.031 273.134C452.866 273.134 453.543 273.811 453.543 274.646Z" fill="#D9D9D9"/>
<path d="M485.795 293.291C485.795 294.405 485.118 295.307 484.283 295.307C483.449 295.307 482.772 294.405 482.772 293.291C482.772 292.178 483.449 291.276 484.283 291.276C485.118 291.276 485.795 292.178 485.795 293.291Z" fill="#D9D9D9"/>
<path d="M413.228 357.795C413.228 358.352 412.777 358.803 412.22 358.803C411.664 358.803 411.213 358.352 411.213 357.795C411.213 357.239 411.664 356.787 412.22 356.787C412.777 356.787 413.228 357.239 413.228 357.795Z" fill="#D9D9D9"/>
<path d="M406.173 381.984C406.173 383.098 405.496 384 404.661 384C403.826 384 403.15 383.098 403.15 381.984C403.15 380.871 403.826 379.969 404.661 379.969C405.496 379.969 406.173 380.871 406.173 381.984Z" fill="#D9D9D9"/>
<path d="M387.024 397.606C387.024 399.555 385.219 401.134 382.992 401.134C380.766 401.134 378.961 399.555 378.961 397.606C378.961 395.658 380.766 394.079 382.992 394.079C385.219 394.079 387.024 395.658 387.024 397.606Z" fill="#D9D9D9"/>
<path d="M402.142 410.709C402.142 410.987 401.69 411.213 401.134 411.213C400.577 411.213 400.126 410.987 400.126 410.709C400.126 410.43 400.577 410.205 401.134 410.205C401.69 410.205 402.142 410.43 402.142 410.709Z" fill="#D9D9D9"/>
<path d="M367.874 414.236C367.874 414.793 367.423 415.244 366.866 415.244C366.31 415.244 365.858 414.793 365.858 414.236C365.858 413.68 366.31 413.228 366.866 413.228C367.423 413.228 367.874 413.68 367.874 414.236Z" fill="#D9D9D9"/>
<path d="M362.835 416.756C362.835 417.591 362.383 418.268 361.827 418.268C361.27 418.268 360.819 417.591 360.819 416.756C360.819 415.921 361.27 415.244 361.827 415.244C362.383 415.244 362.835 415.921 362.835 416.756Z" fill="#D9D9D9"/>
<path d="M364.85 423.811C364.85 424.089 364.399 424.315 363.843 424.315C363.286 424.315 362.835 424.089 362.835 423.811C362.835 423.533 363.286 423.307 363.843 423.307C364.399 423.307 364.85 423.533 364.85 423.811Z" fill="#D9D9D9"/>
<path d="M347.717 467.15C347.717 468.541 346.814 469.669 345.701 469.669C344.588 469.669 343.685 468.541 343.685 467.15C343.685 465.758 344.588 464.63 345.701 464.63C346.814 464.63 347.717 465.758 347.717 467.15Z" fill="#D9D9D9"/>
<path d="M295.307 472.189C295.307 474.694 293.277 476.724 290.772 476.724C288.267 476.724 286.236 474.694 286.236 472.189C286.236 469.684 288.267 467.654 290.772 467.654C293.277 467.654 295.307 469.684 295.307 472.189Z" fill="#D9D9D9"/>
<path d="M253.984 444.472C253.984 447.256 251.728 449.512 248.945 449.512C246.162 449.512 243.906 447.256 243.906 444.472C243.906 441.689 246.162 439.433 248.945 439.433C251.728 439.433 253.984 441.689 253.984 444.472Z" fill="#D9D9D9"/>
<path d="M290.268 430.362C290.268 431.475 289.365 432.378 288.252 432.378C287.139 432.378 286.236 431.475 286.236 430.362C286.236 429.249 287.139 428.346 288.252 428.346C289.365 428.346 290.268 429.249 290.268 430.362Z" fill="#D9D9D9"/>
<path d="M237.858 480.756C237.858 481.869 236.956 482.772 235.843 482.772C234.729 482.772 233.827 481.869 233.827 480.756C233.827 479.643 234.729 478.74 235.843 478.74C236.956 478.74 237.858 479.643 237.858 480.756Z" fill="#D9D9D9"/>
<path d="M203.591 461.606C203.591 462.72 202.688 463.622 201.575 463.622C200.462 463.622 199.559 462.72 199.559 461.606C199.559 460.493 200.462 459.591 201.575 459.591C202.688 459.591 203.591 460.493 203.591 461.606Z" fill="#D9D9D9"/>
<path d="M177.386 432.378C177.386 433.491 176.483 434.394 175.37 434.394C174.257 434.394 173.354 433.491 173.354 432.378C173.354 431.265 174.257 430.362 175.37 430.362C176.483 430.362 177.386 431.265 177.386 432.378Z" fill="#D9D9D9"/>
<path d="M150.173 452.031C150.173 453.423 149.045 454.551 147.654 454.551C146.262 454.551 145.134 453.423 145.134 452.031C145.134 450.64 146.262 449.512 147.654 449.512C149.045 449.512 150.173 450.64 150.173 452.031Z" fill="#D9D9D9"/>
<path d="M133.039 417.764C133.039 419.155 131.911 420.283 130.52 420.283C129.128 420.283 128 419.155 128 417.764C128 416.372 129.128 415.244 130.52 415.244C131.911 415.244 133.039 416.372 133.039 417.764Z" fill="#D9D9D9"/>
<path d="M221.732 391.055C221.732 392.168 220.83 393.071 219.717 393.071C218.603 393.071 217.701 392.168 217.701 391.055C217.701 389.942 218.603 389.039 219.717 389.039C220.83 389.039 221.732 389.942 221.732 391.055Z" fill="#D9D9D9"/>
<path d="M308.409 364.346C308.409 365.738 307.056 366.866 305.386 366.866C303.716 366.866 302.362 365.738 302.362 364.346C302.362 362.955 303.716 361.827 305.386 361.827C307.056 361.827 308.409 362.955 308.409 364.346Z" fill="#D9D9D9"/>
<path d="M154.205 367.874C154.205 368.431 153.753 368.882 153.197 368.882C152.64 368.882 152.189 368.431 152.189 367.874C152.189 367.317 152.64 366.866 153.197 366.866C153.753 366.866 154.205 367.317 154.205 367.874Z" fill="#D9D9D9"/>
<path d="M69.5433 365.858C69.5433 366.972 68.6408 367.874 67.5276 367.874C66.4143 367.874 65.5118 366.972 65.5118 365.858C65.5118 364.745 66.4143 363.843 67.5276 363.843C68.6408 363.843 69.5433 364.745 69.5433 365.858Z" fill="#D9D9D9"/>
<path d="M46.3622 327.055C46.3622 329.003 44.7829 330.583 42.8346 330.583C40.8864 330.583 39.3071 329.003 39.3071 327.055C39.3071 325.107 40.8864 323.528 42.8346 323.528C44.7829 323.528 46.3622 325.107 46.3622 327.055Z" fill="#D9D9D9"/>
<path d="M93.7323 322.016C93.7323 322.851 93.0554 323.528 92.2205 323.528C91.3855 323.528 90.7087 322.851 90.7087 322.016C90.7087 321.181 91.3855 320.504 92.2205 320.504C93.0554 320.504 93.7323 321.181 93.7323 322.016Z" fill="#D9D9D9"/>
<path d="M32.252 267.591C32.252 268.982 31.3495 270.11 30.2362 270.11C29.123 270.11 28.2205 268.982 28.2205 267.591C28.2205 266.199 29.123 265.071 30.2362 265.071C31.3495 265.071 32.252 266.199 32.252 267.591Z" fill="#D9D9D9"/>
<path d="M61.4803 257.512C61.4803 258.347 60.5778 259.024 59.4646 259.024C58.3513 259.024 57.4488 258.347 57.4488 257.512C57.4488 256.677 58.3513 256 59.4646 256C60.5778 256 61.4803 256.677 61.4803 257.512Z" fill="#D9D9D9"/>
<path d="M107.843 239.37C107.843 240.762 106.94 241.89 105.827 241.89C104.714 241.89 103.811 240.762 103.811 239.37C103.811 237.978 104.714 236.85 105.827 236.85C106.94 236.85 107.843 237.978 107.843 239.37Z" fill="#D9D9D9"/>
<path d="M132.031 200.567C132.031 203.35 129.775 205.606 126.992 205.606C124.209 205.606 121.953 203.35 121.953 200.567C121.953 197.784 124.209 195.528 126.992 195.528C129.775 195.528 132.031 197.784 132.031 200.567Z" fill="#D9D9D9"/>
<path d="M106.835 186.961C106.835 187.796 106.158 188.472 105.323 188.472C104.488 188.472 103.811 187.796 103.811 186.961C103.811 186.126 104.488 185.449 105.323 185.449C106.158 185.449 106.835 186.126 106.835 186.961Z" fill="#D9D9D9"/>
<path d="M39.3071 183.937C39.3071 185.885 37.7277 187.465 35.7795 187.465C33.8313 187.465 32.252 185.885 32.252 183.937C32.252 181.989 33.8313 180.409 35.7795 180.409C37.7277 180.409 39.3071 181.989 39.3071 183.937Z" fill="#D9D9D9"/>
<path d="M120.945 282.205C120.945 283.318 120.042 284.22 118.929 284.22C117.816 284.22 116.913 283.318 116.913 282.205C116.913 281.091 117.816 280.189 118.929 280.189C120.042 280.189 120.945 281.091 120.945 282.205Z" fill="#D9D9D9"/>
<path d="M173.354 254.488C173.354 255.88 172.226 257.008 170.835 257.008C169.443 257.008 168.315 255.88 168.315 254.488C168.315 253.097 169.443 251.969 170.835 251.969C172.226 251.969 173.354 253.097 173.354 254.488Z" fill="#D9D9D9"/>
<path d="M192.504 309.921C192.504 310.756 191.827 311.433 190.992 311.433C190.157 311.433 189.48 310.756 189.48 309.921C189.48 309.086 190.157 308.409 190.992 308.409C191.827 308.409 192.504 309.086 192.504 309.921Z" fill="#D9D9D9"/>
<path d="M218.709 321.512C218.709 322.068 218.257 322.52 217.701 322.52C217.144 322.52 216.693 322.068 216.693 321.512C216.693 320.955 217.144 320.504 217.701 320.504C218.257 320.504 218.709 320.955 218.709 321.512Z" fill="#D9D9D9"/>
<path d="M344.693 326.047C344.693 327.439 343.339 328.567 341.669 328.567C339.999 328.567 338.646 327.439 338.646 326.047C338.646 324.656 339.999 323.528 341.669 323.528C343.339 323.528 344.693 324.656 344.693 326.047Z" fill="#D9D9D9"/>
<path d="M345.701 270.11C345.701 271.224 344.798 272.126 343.685 272.126C342.572 272.126 341.669 271.224 341.669 270.11C341.669 268.997 342.572 268.094 343.685 268.094C344.798 268.094 345.701 268.997 345.701 270.11Z" fill="#D9D9D9"/>
<path d="M185.449 207.118C185.449 207.953 184.772 208.63 183.937 208.63C183.102 208.63 182.425 207.953 182.425 207.118C182.425 206.283 183.102 205.606 183.937 205.606C184.772 205.606 185.449 206.283 185.449 207.118Z" fill="#D9D9D9"/>
<path d="M212.661 185.449C212.661 186.562 211.759 187.465 210.646 187.465C209.532 187.465 208.63 186.562 208.63 185.449C208.63 184.336 209.532 183.433 210.646 183.433C211.759 183.433 212.661 184.336 212.661 185.449Z" fill="#D9D9D9"/>
<path d="M254.992 160.252C254.992 161.365 254.315 162.268 253.48 162.268C252.645 162.268 251.969 161.365 251.969 160.252C251.969 159.139 252.645 158.236 253.48 158.236C254.315 158.236 254.992 159.139 254.992 160.252Z" fill="#D9D9D9"/>
<path d="M329.575 160.756C329.575 162.147 328.221 163.276 326.551 163.276C324.881 163.276 323.528 162.147 323.528 160.756C323.528 159.364 324.881 158.236 326.551 158.236C328.221 158.236 329.575 159.364 329.575 160.756Z" fill="#D9D9D9"/>
<path d="M404.157 207.622C404.157 209.849 402.353 211.654 400.126 211.654C397.899 211.654 396.094 209.849 396.094 207.622C396.094 205.396 397.899 203.591 400.126 203.591C402.353 203.591 404.157 205.396 404.157 207.622Z" fill="#D9D9D9"/>
<path d="M323.528 224.756C323.528 226.426 322.174 227.78 320.504 227.78C318.834 227.78 317.48 226.426 317.48 224.756C317.48 223.086 318.834 221.732 320.504 221.732C322.174 221.732 323.528 223.086 323.528 224.756Z" fill="#D9D9D9"/>
<path d="M446.488 183.937C446.488 185.329 445.134 186.457 443.465 186.457C441.795 186.457 440.441 185.329 440.441 183.937C440.441 182.545 441.795 181.417 443.465 181.417C445.134 181.417 446.488 182.545 446.488 183.937Z" fill="#D9D9D9"/>
<path d="M477.732 220.724C477.732 221.838 476.83 222.74 475.717 222.74C474.603 222.74 473.701 221.838 473.701 220.724C473.701 219.611 474.603 218.709 475.717 218.709C476.83 218.709 477.732 219.611 477.732 220.724Z" fill="#D9D9D9"/>
<path d="M374.929 130.52C374.929 131.911 374.027 133.039 372.913 133.039C371.8 133.039 370.898 131.911 370.898 130.52C370.898 129.128 371.8 128 372.913 128C374.027 128 374.929 129.128 374.929 130.52Z" fill="#D9D9D9"/>
<path d="M95.748 397.606C95.748 398.998 94.6199 400.126 93.2283 400.126C91.8368 400.126 90.7087 398.998 90.7087 397.606C90.7087 396.215 91.8368 395.087 93.2283 395.087C94.6199 395.087 95.748 396.215 95.748 397.606Z" fill="#D9D9D9"/>
<path d="M67.5276 126.488C67.5276 127.88 66.1738 129.008 64.5039 129.008C62.834 129.008 61.4803 127.88 61.4803 126.488C61.4803 125.097 62.834 123.969 64.5039 123.969C66.1738 123.969 67.5276 125.097 67.5276 126.488Z" fill="#D9D9D9"/>
<path d="M189.48 36.2835C189.48 38.51 188.127 40.315 186.457 40.315C184.787 40.315 183.433 38.51 183.433 36.2835C183.433 34.0569 184.787 32.252 186.457 32.252C188.127 32.252 189.48 34.0569 189.48 36.2835Z" fill="#D9D9D9"/>
<path d="M222.74 26.2047C222.74 27.318 221.612 28.2205 220.22 28.2205C218.829 28.2205 217.701 27.318 217.701 26.2047C217.701 25.0915 218.829 24.189 220.22 24.189C221.612 24.189 222.74 25.0915 222.74 26.2047Z" fill="#D9D9D9"/>
<path d="M313.449 27.2126C313.449 28.8825 312.321 30.2362 310.929 30.2362C309.538 30.2362 308.409 28.8825 308.409 27.2126C308.409 25.5427 309.538 24.189 310.929 24.189C312.321 24.189 313.449 25.5427 313.449 27.2126Z" fill="#D9D9D9"/>
<path d="M333.606 49.8898C333.606 52.9512 331.35 55.4331 328.567 55.4331C325.784 55.4331 323.528 52.9512 323.528 49.8898C323.528 46.8283 325.784 44.3465 328.567 44.3465C331.35 44.3465 333.606 46.8283 333.606 49.8898Z" fill="#D9D9D9"/>
<path d="M424.315 96.252C424.315 97.6436 423.412 98.7717 422.299 98.7717C421.186 98.7717 420.283 97.6436 420.283 96.252C420.283 94.8604 421.186 93.7323 422.299 93.7323C423.412 93.7323 424.315 94.8604 424.315 96.252Z" fill="#D9D9D9"/>
<path d="M270.11 100.787C270.11 101.901 269.208 102.803 268.094 102.803C266.981 102.803 266.079 101.901 266.079 100.787C266.079 99.6741 266.981 98.7717 268.094 98.7717C269.208 98.7717 270.11 99.6741 270.11 100.787Z" fill="#D9D9D9"/>
<path d="M234.835 112.378C234.835 113.77 233.707 114.898 232.315 114.898C230.923 114.898 229.795 113.77 229.795 112.378C229.795 110.986 230.923 109.858 232.315 109.858C233.707 109.858 234.835 110.986 234.835 112.378Z" fill="#D9D9D9"/>
<defs>
<linearGradient id="paint0_linear_5_124" x1="-51.9055" y1="-41.3228" x2="608.252" y2="575.496" gradientUnits="userSpaceOnUse">
<stop stop-color="#101E3F"/>
<stop offset="0.490385" stop-color="#0C131D"/>
<stop offset="1" stop-color="#10224D"/>
</linearGradient>
<linearGradient id="paint1_linear_5_124" x1="107.939" y1="77.6292" x2="419.875" y2="422.674" gradientUnits="userSpaceOnUse">
<stop stop-color="#6352B1"/>
<stop offset="1" stop-color="#3A3A8B"/>
</linearGradient>
<linearGradient id="paint2_linear_5_124" x1="511.672" y1="255.317" x2="-88.1946" y2="314.22" gradientUnits="userSpaceOnUse">
<stop stop-color="#162A69" stop-opacity="0.5"/>
<stop offset="0.485577" stop-color="#2741A5"/>
<stop offset="1" stop-color="#101D3A" stop-opacity="0.7"/>
</linearGradient>
<linearGradient id="paint3_linear_5_124" x1="511.672" y1="255.317" x2="-88.1946" y2="314.22" gradientUnits="userSpaceOnUse">
<stop stop-color="#162A69" stop-opacity="0.5"/>
<stop offset="0.485577" stop-color="#2741A5"/>
<stop offset="1" stop-color="#101D3A" stop-opacity="0.7"/>
</linearGradient>
</defs>
</svg>
